<svg width="46" height="45" viewBox="0 0 46 45" fill="none" xmlns="http://www.w3.org/2000/svg">
<path d="M39.1032 8.64424C38.1456 7.68613 37.0085 6.92608 35.757 6.40753C34.5055 5.88897 33.1642 5.62207 31.8095 5.62207C30.4548 5.62207 29.1134 5.88897 27.8619 6.40753C26.6105 6.92608 25.4734 7.68613 24.5157 8.64424L22.5282 10.6317L20.5407 8.64424C18.6063 6.70982 15.9827 5.62307 13.247 5.62307C10.5113 5.62307 7.88766 6.70982 5.95324 8.64424C4.01882 10.5787 2.93207 13.2023 2.93207 15.938C2.93207 18.6737 4.01882 21.2973 5.95324 23.2317L7.94074 25.2192L22.5282 39.8067L37.1157 25.2192L39.1032 23.2317C40.0614 22.2741 40.8214 21.137 41.34 19.8855C41.8585 18.634 42.1254 17.2927 42.1254 15.938C42.1254 14.5833 41.8585 13.2419 41.34 11.9905C40.8214 10.739 40.0614 9.60191 39.1032 8.64424V8.64424Z" stroke="#AF4BFB" stroke-width="3.75" stroke-linecap="round" stroke-linejoin="round"/>
</svg>
