<svg width="46" height="45" viewBox="0 0 46 45" fill="none" xmlns="http://www.w3.org/2000/svg">
<path d="M23.1389 41.25C33.4943 41.25 41.8889 32.8553 41.8889 22.5C41.8889 12.1447 33.4943 3.75 23.1389 3.75C12.7836 3.75 4.38895 12.1447 4.38895 22.5C4.38895 32.8553 12.7836 41.25 23.1389 41.25Z" stroke="#AF4BFB" stroke-width="3.75" stroke-linecap="round" stroke-linejoin="round"/>
<path d="M23.1389 33.75C29.3521 33.75 34.3889 28.7132 34.3889 22.5C34.3889 16.2868 29.3521 11.25 23.1389 11.25C16.9257 11.25 11.8889 16.2868 11.8889 22.5C11.8889 28.7132 16.9257 33.75 23.1389 33.75Z" stroke="#AF4BFB" stroke-width="3.75" stroke-linecap="round" stroke-linejoin="round"/>
<path d="M23.1389 26.25C25.21 26.25 26.8889 24.5711 26.8889 22.5C26.8889 20.4289 25.21 18.75 23.1389 18.75C21.0679 18.75 19.3889 20.4289 19.3889 22.5C19.3889 24.5711 21.0679 26.25 23.1389 26.25Z" stroke="#AF4BFB" stroke-width="3.75" stroke-linecap="round" stroke-linejoin="round"/>
</svg>
