<svg width="46" height="46" viewBox="0 0 46 46" fill="none" xmlns="http://www.w3.org/2000/svg">
<g clip-path="url(#clip0_2_102)">
<path d="M22.7019 32.6973C27.8795 32.6973 32.0769 28.4999 32.0769 23.3223C32.0769 18.1446 27.8795 13.9473 22.7019 13.9473C17.5242 13.9473 13.3269 18.1446 13.3269 23.3223C13.3269 28.4999 17.5242 32.6973 22.7019 32.6973Z" stroke="#AF4BFB" stroke-width="3.75" stroke-linecap="round" stroke-linejoin="round"/>
<path d="M22.7019 2.69727V6.44727" stroke="#AF4BFB" stroke-width="3.75" stroke-linecap="round" stroke-linejoin="round"/>
<path d="M22.7019 40.1973V43.9473" stroke="#AF4BFB" stroke-width="3.75" stroke-linecap="round" stroke-linejoin="round"/>
<path d="M8.11398 8.73438L10.7765 11.3969" stroke="#AF4BFB" stroke-width="3.75" stroke-linecap="round" stroke-linejoin="round"/>
<path d="M34.6267 35.2471L37.2892 37.9096" stroke="#AF4BFB" stroke-width="3.75" stroke-linecap="round" stroke-linejoin="round"/>
<path d="M2.07687 23.3223H5.82687" stroke="#AF4BFB" stroke-width="3.75" stroke-linecap="round" stroke-linejoin="round"/>
<path d="M39.5769 23.3223H43.3269" stroke="#AF4BFB" stroke-width="3.75" stroke-linecap="round" stroke-linejoin="round"/>
<path d="M8.11398 37.9096L10.7765 35.2471" stroke="#AF4BFB" stroke-width="3.75" stroke-linecap="round" stroke-linejoin="round"/>
<path d="M34.6267 11.3969L37.2892 8.73438" stroke="#AF4BFB" stroke-width="3.75" stroke-linecap="round" stroke-linejoin="round"/>
</g>
<defs>
<clipPath id="clip0_2_102">
<rect width="45" height="45" fill="white" transform="translate(0.201874 0.822266)"/>
</clipPath>
</defs>
</svg>
